<svg width="76" height="76" viewBox="0 0 76 76" fill="none" xmlns="http://www.w3.org/2000/svg">
<path d="M38 75.5C17.2893 75.5 0.5 58.7105 0.5 38C0.5 17.2893 17.2893 0.5 38 0.5C58.7105 0.5 75.5 17.2893 75.5 38C75.4771 58.7011 58.7011 75.4771 38 75.5ZM38 8C21.4314 8 8 21.4314 8 38C8 54.5686 21.4314 68 38 68C54.5686 68 68 54.5686 68 38C67.9812 21.4392 54.5607 8.0186 38 8ZM38 60.5C32.075 60.6001 26.4748 57.8 23 53C21.3128 50.7436 20.0428 48.2038 19.25 45.5H56.75C56.75 45.5 56.75 45.5 56.75 45.53C55.9449 48.2195 54.6759 50.7477 53 53C49.5249 57.7996 43.9246 60.5998 38 60.5ZM24.875 38C21.7684 38 19.25 35.4815 19.25 32.375C19.25 29.2684 21.7684 26.75 24.875 26.75C27.9816 26.75 30.5 29.2684 30.5 32.375C30.5 35.4815 27.9816 38 24.875 38ZM51.0988 37.9475C48.0065 37.9475 45.5 35.441 45.5 32.3488C45.5 29.2567 48.0065 26.75 51.0988 26.75C54.191 26.75 56.6975 29.2567 56.6975 32.3488C56.6934 35.4391 54.1891 37.9434 51.0988 37.9475Z" fill="white"/>
</svg>
