<svg width="34" height="34" viewBox="0 0 34 34" fill="none" xmlns="http://www.w3.org/2000/svg">
<path d="M17 34C7.79949 33.99 0.343474 26.534 0.333374 17.3333V17C0.516591 7.84093 8.05769 0.546634 17.2179 0.668184C26.378 0.789718 33.7229 8.28152 33.663 17.4424C33.6032 26.603 26.161 33.9982 17 34ZM16.9734 30.6667H17C24.3612 30.6593 30.3237 24.6879 30.32 17.3267C30.3164 9.96553 24.3479 4.00005 16.9867 4.00005C9.62551 4.00005 3.65706 9.96553 3.65337 17.3267C3.64969 24.6879 9.61219 30.6593 16.9734 30.6667ZM22 24H18.6667V10.6667H22V24ZM15.3334 24H12V10.6667H15.3334V24Z" fill="white"/>
</svg>
