<svg width="118" height="118" viewBox="0 0 118 118" fill="none" xmlns="http://www.w3.org/2000/svg">
<path d="M59 117.333C26.7834 117.333 0.666656 91.2163 0.666656 59C0.666656 26.7834 26.7834 0.666672 59 0.666672C91.2163 0.666672 117.333 26.7834 117.333 59C117.298 91.2018 91.2018 117.298 59 117.333ZM12.3333 60.0033C12.6094 85.677 33.5731 106.305 59.2479 106.168C84.9233 106.03 105.664 85.1771 105.664 59.5017C105.664 33.8263 84.9233 12.9737 59.2479 12.835C33.5731 12.6977 12.6094 33.3261 12.3333 59V60.0033ZM47.3333 85.25V32.75L82.3333 59L47.3333 85.25Z" fill="white"/>
</svg>
