<svg width="60" height="60" viewBox="0 0 60 60" fill="none" xmlns="http://www.w3.org/2000/svg">
<path d="M9.07032 24.1076C8.13297 21.5101 9.47876 18.6446 12.0762 17.7072L35.9261 9.10047C38.5236 8.16312 41.3891 9.50891 42.3265 12.1064L50.9332 35.9563C51.8706 38.5537 50.5248 41.4193 47.9273 42.3566L24.0774 50.9634C21.4799 51.9007 18.6144 50.5549 17.6771 47.9575L9.07032 24.1076Z" fill="#FFD54F"/>
<path d="M19.3902 11.042C20.564 8.5425 23.5419 7.46788 26.0414 8.64176L48.9917 19.4203C51.4912 20.5942 52.5658 23.572 51.3919 26.0715L40.6134 49.0218C39.4395 51.5213 36.4616 52.5959 33.9621 51.4221L11.0118 40.6435C8.51235 39.4696 7.43773 36.4918 8.61161 33.9923L19.3902 11.042Z" fill="#FFD54F"/>
</svg>
